<?xml version="1.0" encoding="iso-8859-1"?>
<!-- Uploaded to: SVG Repo, www.svgrepo.com, Generator: SVG Repo Mixer Tools -->
<!DOCTYPE svg PUBLIC "-//W3C//DTD SVG 1.1//EN" "http://www.w3.org/Graphics/SVG/1.1/DTD/svg11.dtd">
<svg fill="#000000" version="1.1" id="Capa_1" xmlns="http://www.w3.org/2000/svg" xmlns:xlink="http://www.w3.org/1999/xlink" 
	 width="800px" height="800px" viewBox="0 0 579.464 579.464"
	 xml:space="preserve">
<g>
	<g>
		<path d="M210.968,287.865l-85.411,118.248l65.27-2.283l18.299,62.647l82.855-114.71l82.855,114.71l18.299-62.647l65.27,2.283
			l-87.408-121.017c-0.977,10.912-10.159,19.501-21.322,19.501h-37.167h-41.046h-39.608
			C221.656,304.594,213.116,297.424,210.968,287.865z"/>
		<path d="M210.433,273.443v-90.019C194.07,164.939,99.217,66.183,0.097,140.052v135.145c-0.171,1.193-1.138,11.2,9.722,20.529
			c10.128,8.703,27.023,13.051,50.576,13.051C95.737,308.774,145.545,293.14,210.433,273.443z"/>
		<path d="M579.364,140.052c-95.542-71.206-187.131,17.99-208.267,41.074v92.941c63.871,19.397,113.006,34.704,147.973,34.707
			c23.55,0,40.443-4.345,50.575-13.051c10.86-9.33,9.894-19.336,9.722-20.529V140.052H579.364z"/>
		<path d="M291.326,289.294h1.316h57.032c3.381,0,6.12-2.742,6.12-6.12v-19.128v-98.694c0-3.378-2.739-6.12-6.12-6.12H231.853
			c-3.381,0-6.12,2.742-6.12,6.12v102.072v15.75c0,3.378,2.739,6.12,6.12,6.12H291.326z"/>
	</g>
</g>
</svg>