<?xml version="1.0" encoding="iso-8859-1"?>
<!-- Uploaded to: SVG Repo, www.svgrepo.com, Generator: SVG Repo Mixer Tools -->
<!DOCTYPE svg PUBLIC "-//W3C//DTD SVG 1.1//EN" "http://www.w3.org/Graphics/SVG/1.1/DTD/svg11.dtd">
<svg fill="#000000" height="800px" width="800px" version="1.1" id="Capa_1" xmlns="http://www.w3.org/2000/svg" xmlns:xlink="http://www.w3.org/1999/xlink" 
	 viewBox="0 0 296.5 296.5" xml:space="preserve">
<g>
	<path d="M232.015,112.621c1.47,6.291,2.272,12.836,2.272,19.568v20.838c0,6.348-3.996,12.009-9.978,14.134
		c-14.469,5.141-39.409,11.27-76.059,11.27c-36.651,0-61.591-6.129-76.059-11.27c-5.981-2.126-9.977-7.786-9.977-14.134v-20.838
		c0-6.733,0.802-13.277,2.272-19.569C25.547,124.739,0,145.067,0,168.1c0,37.138,66.374,67.247,148.25,67.247
		c81.874,0,148.25-30.109,148.25-67.247C296.5,145.067,270.953,124.739,232.015,112.621z"/>
	<path d="M77.214,132.189v20.838c16.379,5.82,40.257,10.404,71.036,10.404c30.779,0,54.657-4.584,71.036-10.404v-20.838
		c0-39.234-31.803-71.036-71.036-71.036C109.015,61.153,77.214,92.955,77.214,132.189z"/>
</g>
</svg>