<svg width="1278" height="1552" viewBox="0 0 1278 1552" fill="none" xmlns="http://www.w3.org/2000/svg">
<g transform="scale(0.5)">
<path d="M2.03462 2225.76C-12.5186 2342.75 55.7713 2407.68 55.7713 2407.68C55.7713 2407.68 149.251 2501.16 293.108 2472.05C436.966 2442.94 489.024 2407.68 489.024 2407.68C489.024 2407.68 355.242 2694.27 437.526 2889.07C519.81 3083.87 757.147 3102.34 757.147 3102.34C757.147 3102.34 900.445 3110.73 1048.22 3060.36C1196 3009.98 1358.33 2886.27 1358.33 2886.27C1358.33 2886.27 1381.28 2987.59 1465.8 3052.52C1550.32 3117.45 1675.71 3102.34 1675.71 3102.34C1675.71 3102.34 1830.2 3093.38 2008.21 2938.89C2186.21 2784.4 2236.03 2676.92 2236.03 2676.92C2243.48 2680.62 2498.51 2264.8 2546.13 1710.78C2593.76 1156.76 2443.7 746.318 2425.22 702.657C2425.22 702.657 2326.15 373.52 1981.9 167.529C1637.65 -38.4619 1291.72 3.52046 1291.72 3.52046C1291.72 3.52046 824.878 28.1498 536.043 430.056C536.043 430.056 322.216 686.984 275.196 1195.24C228.177 1703.5 172.841 1835.49 151.49 1889.9C99.4324 2022.57 16.5879 2108.77 2.03462 2225.76Z" fill="white"/>
</g>
</svg>
