<svg viewBox="0 0 1024 1024" xmlns="http://www.w3.org/2000/svg">
  <!-- Magic wand stick -->
  <line x1="700" y1="650" x2="820" y2="770" stroke="#8B4513" stroke-width="12" stroke-linecap="round"/>
  
  <!-- Star at the top of wand -->
  <path d="M 700 650 L 710 620 L 720 650 L 750 660 L 720 670 L 710 700 L 700 670 L 670 660 Z" fill="#FFD700" stroke="#FFA500" stroke-width="2"/>
  
  <!-- Sparkles around the star -->
  <circle cx="660" cy="630" r="3" fill="#FFFF00" opacity="0.8"/>
  <circle cx="740" cy="630" r="3" fill="#FFFF00" opacity="0.8"/>
  <circle cx="680" cy="680" r="3" fill="#FFFF00" opacity="0.8"/>
  <circle cx="730" cy="690" r="3" fill="#FFFF00" opacity="0.8"/>
  
  <!-- Additional sparkle effects -->
  <path d="M 650 620 L 652 615 L 654 620 L 659 622 L 654 624 L 652 629 L 650 624 L 645 622 Z" fill="#FFFFFF" opacity="0.9"/>
  <path d="M 745 625 L 747 620 L 749 625 L 754 627 L 749 629 L 747 634 L 745 629 L 740 627 Z" fill="#FFFFFF" opacity="0.9"/>
</svg>
