<svg viewBox="0 0 1024 1024" xmlns="http://www.w3.org/2000/svg">
  <!-- Night sky gradient background -->
  <defs>
    <radialGradient id="nightSky" cx="50%" cy="30%">
      <stop offset="0%" style="stop-color:#1a1a3e;stop-opacity:0.3" />
      <stop offset="100%" style="stop-color:#0a0a1e;stop-opacity:0.5" />
    </radialGradient>
  </defs>
  
  <!-- Sky background -->
  <rect x="0" y="0" width="1024" height="1024" fill="url(#nightSky)" />
  
  <!-- Large moon in upper right -->
  <circle cx="800" cy="200" r="80" fill="#F0E68C" opacity="0.9" />
  
  <!-- Moon craters for detail -->
  <circle cx="780" cy="180" r="12" fill="#D3C17A" opacity="0.6" />
  <circle cx="815" cy="195" r="8" fill="#D3C17A" opacity="0.5" />
  <circle cx="795" cy="220" r="10" fill="#D3C17A" opacity="0.6" />
  
  <!-- Moon glow -->
  <circle cx="800" cy="200" r="90" fill="#F0E68C" opacity="0.2" />
  <circle cx="800" cy="200" r="100" fill="#F0E68C" opacity="0.1" />
  
  <!-- Stars scattered in the sky -->
  <circle cx="150" cy="100" r="2" fill="#FFFFFF" opacity="0.8" />
  <circle cx="250" cy="150" r="1.5" fill="#FFFFFF" opacity="0.7" />
  <circle cx="350" cy="80" r="2" fill="#FFFFFF" opacity="0.9" />
  <circle cx="450" cy="120" r="1" fill="#FFFFFF" opacity="0.6" />
  <circle cx="550" cy="90" r="2" fill="#FFFFFF" opacity="0.8" />
  <circle cx="650" cy="140" r="1.5" fill="#FFFFFF" opacity="0.7" />
  
  <circle cx="100" cy="300" r="1.5" fill="#FFFFFF" opacity="0.7" />
  <circle cx="200" cy="350" r="2" fill="#FFFFFF" opacity="0.8" />
  <circle cx="300" cy="400" r="1" fill="#FFFFFF" opacity="0.6" />
  <circle cx="900" cy="350" r="2" fill="#FFFFFF" opacity="0.8" />
  <circle cx="950" cy="400" r="1.5" fill="#FFFFFF" opacity="0.7" />
  
  <circle cx="120" cy="600" r="2" fill="#FFFFFF" opacity="0.8" />
  <circle cx="220" cy="650" r="1" fill="#FFFFFF" opacity="0.6" />
  <circle cx="850" cy="600" r="1.5" fill="#FFFFFF" opacity="0.7" />
  <circle cx="920" cy="680" r="2" fill="#FFFFFF" opacity="0.8" />
  
  <circle cx="180" cy="850" r="1.5" fill="#FFFFFF" opacity="0.7" />
  <circle cx="280" cy="900" r="2" fill="#FFFFFF" opacity="0.8" />
  <circle cx="750" cy="880" r="1" fill="#FFFFFF" opacity="0.6" />
  <circle cx="880" cy="920" r="1.5" fill="#FFFFFF" opacity="0.7" />
</svg>
