<svg viewBox="0 0 1024 1024" xmlns="http://www.w3.org/2000/svg">
  <!-- Sparkle effects scattered around the canvas -->
  
  <!-- Large sparkle top-left -->
  <g opacity="0.8">
    <path d="M 150 150 L 155 165 L 170 170 L 155 175 L 150 190 L 145 175 L 130 170 L 145 165 Z" fill="#FFD700" />
    <circle cx="150" cy="170" r="3" fill="#FFFFFF" />
  </g>
  
  <!-- Medium sparkle top-right -->
  <g opacity="0.7">
    <path d="M 850 200 L 854 212 L 866 216 L 854 220 L 850 232 L 846 220 L 834 216 L 846 212 Z" fill="#FFA500" />
    <circle cx="850" cy="216" r="2" fill="#FFFFFF" />
  </g>
  
  <!-- Small sparkle upper-middle -->
  <g opacity="0.9">
    <path d="M 500 120 L 503 130 L 513 133 L 503 136 L 500 146 L 497 136 L 487 133 L 497 130 Z" fill="#FFFF00" />
  </g>
  
  <!-- Large sparkle middle-left -->
  <g opacity="0.75">
    <path d="M 200 450 L 206 468 L 224 474 L 206 480 L 200 498 L 194 480 L 176 474 L 194 468 Z" fill="#FFD700" />
    <circle cx="200" cy="474" r="3" fill="#FFFFFF" />
  </g>
  
  <!-- Medium sparkle middle-right -->
  <g opacity="0.8">
    <path d="M 820 500 L 824 512 L 836 516 L 824 520 L 820 532 L 816 520 L 804 516 L 816 512 Z" fill="#FFA500" />
    <circle cx="820" cy="516" r="2" fill="#FFFFFF" />
  </g>
  
  <!-- Small sparkle center -->
  <g opacity="0.6">
    <path d="M 550 550 L 553 560 L 563 563 L 553 566 L 550 576 L 547 566 L 537 563 L 547 560 Z" fill="#FFFF00" />
  </g>
  
  <!-- Large sparkle bottom-left -->
  <g opacity="0.85">
    <path d="M 180 780 L 186 798 L 204 804 L 186 810 L 180 828 L 174 810 L 156 804 L 174 798 Z" fill="#FFD700" />
    <circle cx="180" cy="804" r="3" fill="#FFFFFF" />
  </g>
  
  <!-- Medium sparkle bottom-right -->
  <g opacity="0.7">
    <path d="M 870 850 L 874 862 L 886 866 L 874 870 L 870 882 L 866 870 L 854 866 L 866 862 Z" fill="#FFA500" />
    <circle cx="870" cy="866" r="2" fill="#FFFFFF" />
  </g>
  
  <!-- Small sparkle bottom-center -->
  <g opacity="0.9">
    <path d="M 480 900 L 483 910 L 493 913 L 483 916 L 480 926 L 477 916 L 467 913 L 477 910 Z" fill="#FFFF00" />
  </g>
  
  <!-- Tiny sparkles for extra detail -->
  <circle cx="300" cy="250" r="2" fill="#FFFFFF" opacity="0.6" />
  <circle cx="700" cy="350" r="2" fill="#FFFFFF" opacity="0.5" />
  <circle cx="400" cy="650" r="2" fill="#FFFFFF" opacity="0.7" />
  <circle cx="650" cy="750" r="2" fill="#FFFFFF" opacity="0.6" />
</svg>
